<?xml version="1.0" encoding="UTF-8"?>
<svg id="Layer_1" xmlns="http://www.w3.org/2000/svg" version="1.1" viewBox="0 0 104.45 123.31">
  <!-- Generator: Adobe Illustrator 29.1.0, SVG Export Plug-In . SVG Version: 2.1.0 Build 142)  -->
  <defs>
    <style>
      .st0 {
        fill: #fff;
      }
    </style>
  </defs>
  <path class="st0" d="M76.54,9.94c2.22,6.85,4.12,13.4,3.51,20.74,3.11,13.8,8.71,26.98,12.82,40.52l-40.58,39.73L11.75,70.91l12.17-36.84c.73-4.02.15-8.94.66-12.84.15-1.12,3.01-10.22,3.45-10.56l17.02,13.01c4.74.87,9.59,1.1,14.28-.2l17.2-13.54h.01ZM89.46,71.35l-10.16-35.91-8.56-9.88c-5.65.41-12.4,2.86-17.94,2.92s-12.77-2.47-18.55-3l-9.1,9.32-10.42,35.91,37.56,32.25,37.16-31.61h0Z"/>
  <path class="st0" d="M59.05,75.93c-1.59-5.64-6.46-12.81-1.75-17.99.6,1.41-.74,2.56-.64,4.12.33,5.44,5.05,12.6,2.59,17.83-.68,1.45-2.8,3.31-3.7,4.8,9.22,2.3,8.23-8.54,11.07-13.43.4-.69,6-5.98,6.66-6.36,1.86-1.09,3.8.95,5.76,1.04l-.49-4.5,3.99,1.5c.39-.38-1.5-3.24-1.77-3.98-.17-.47-.66-1.63.26-1.51l5.5,9-4.99-2,.5,4.49c-.41.39-6.24-2.57-7.98-1.76-.37.17-5.96,4.86-6.25,5.28-2.1,3.02-2.52,10.39-5.92,12.83-.68.49-2.11.31-2.6,1.15-.43.74-.06,1.87-.71,2.79-.28.41-5.34,3.04-5.91,3.13-.65.1-6.79-2.72-7.02-3.03-.43-.6-.16-2.54-.74-3.26-.35-.43-2.06-.74-2.84-1.41-3.62-3.12-3.47-9.31-5.59-12.4-.35-.52-4.74-4.07-5.47-4.54-2.59-1.63-5.64,1.22-8.46,1.23l.49-4.5-5.49,1.75,5.49-7.25-1.49,3.99,3.99-1.49c.58.79-.99,4.41.25,4.49,2.09-.87,3.6-2.09,5.73-.71.49.32,6.23,5.66,6.47,6.03,1.16,1.8,1.72,6.73,2.81,9.19,1.86,4.22,3.57,4.94,8.25,4.5-1.29-2-4.19-4.34-4.52-6.72-.76-5.4,3.75-11.95,2.9-17.4-.17-1.09-.89-2.25-1.16-3.34-.12-.5-.66-1.64.27-1.52-.04,1.81,2.67,4.42,2.79,5.73.08.92-1.08,6.16-1.43,7.38-.48,1.66-2.99,5.68-2.14,6.92,4.8,2.84,8.4,1.66,13.28-.03v-.04ZM57.52,85.96c-1.86.03-3.78-.96-5.59-.89-2.49.09-8.36,1.7-4.01,4.26,3.28,1.93,6.35.82,9.57-.45l.04-2.91h0Z"/>
  <path class="st0" d="M71.04,47.94l-.99,4.26-10.01,1.74c-.51-.47,4.47-5.5,5.01-5.74,1.58-.72,4.23-.03,5.99-.26Z"/>
  <path class="st0" d="M44.55,53.93l-10.48-1.51-.52-4.48c1.55.26,4.77-.5,6,.25.84.51,3.77,4.83,5,5.74Z"/>
</svg>