<?xml version="1.0" encoding="UTF-8"?>
<svg id="Layer_1" xmlns="http://www.w3.org/2000/svg" version="1.1" viewBox="0 0 444.03 134.15">
  <!-- Generator: Adobe Illustrator 29.1.0, SVG Export Plug-In . SVG Version: 2.1.0 Build 142)  -->
  <defs>
    <style>
      .st0 {
        fill: #fff;
      }
    </style>
  </defs>
  <path class="st0" d="M80.96,18.91c2.22,6.85,4.12,13.4,3.51,20.74,3.11,13.8,8.71,26.98,12.82,40.52l-40.58,39.73-40.54-40.02,12.17-36.84c.73-4.02.15-8.94.66-12.84.15-1.12,3.01-10.22,3.45-10.56l17.02,13.01c4.74.87,9.59,1.1,14.28-.2l17.2-13.54ZM93.88,80.32l-10.16-35.91-8.56-9.88c-5.65.41-12.4,2.86-17.94,2.92s-12.77-2.47-18.55-3l-9.1,9.32-10.42,35.91,37.56,32.25,37.16-31.61Z"/>
  <path class="st0" d="M279.96,63.41c-3.42-4.32-15.29-6.2-17.73-.49-3.24,7.57,9.8,5.72,13.86,6.62,11.89,2.64,10.18,16.45-.01,19.73-8.01,2.58-15.77.32-21.11-6.11l3.68-2.71c3.54,6.21,19.42,7.03,20.49-.61,1.11-7.84-10.44-5.35-15.28-6.57-10.6-2.66-9.25-13.9-.58-17.79,5.99-2.69,14.75-.66,19.15,4.26l-2.47,3.68Z"/>
  <path class="st0" d="M187.47,89.41h-5v-34h20.25c.59,0,3.61,1.68,4.27,2.23,4.9,4.14,3.79,13.31-1.86,16.17-5.28,2.68-12.5-.63-17.66,2.84v12.75ZM202.72,60.41c-4.28-.78-10.72.58-15.25,0v11c3.79-3.11,13.21.04,16.27-2.48,2.2-1.81,1.73-8.01-1.02-8.52Z"/>
  <path class="st0" d="M221.97,55.41v22.75c0,1.22,2.58,5,3.75,5.75,3.72,2.4,12.24,2.02,15.26-1.39.41-.46,1.99-3.48,1.99-3.87v-23.25h5v22.75c0,.81-1.25,4.34-1.72,5.28-5.84,11.57-29.28,8.2-29.28-5.78v-22.25h5Z"/>
  <path class="st0" d="M338.97,55.41v23.25c0,.26,1.45,3.32,1.77,3.73,3.57,4.55,14.89,4.02,17.84-1.12.31-.54,1.39-3.22,1.39-3.61v-22.25h4.5v24.75c0,.4-1.86,4.12-2.28,4.72-5.58,7.95-22.53,7.25-26.81-1.63-.26-.54-1.41-3.79-1.41-4.09v-23.75h5Z"/>
  <path class="st0" d="M146.97,55.41v23.25c0,.26,1.45,3.32,1.77,3.73,3.6,4.58,15.45,3.92,18.17-1.29.23-.44,1.06-3.15,1.06-3.44v-22.25h4.5v24.75c0,.4-1.86,4.12-2.28,4.72-5.58,7.95-22.53,7.25-26.81-1.63-.26-.54-1.41-3.79-1.41-4.09v-23.75h5Z"/>
  <path class="st0" d="M380.36,55.52l7.87,10.89c1.64.41,7.25-9.92,8.74-10.74,1.35-.75,4.38,0,6-.25l-11.03,15.72,13.03,18.27-6.29-.46-9.97-13.53-10.85,13.89-6.39.11,13.87-18.24-10.87-15.01c-.21-1.13.49-.69,1.24-.74.9-.06,4.14-.19,4.65.11Z"/>
  <polygon class="st0" points="116.97 55.41 116.97 84.16 117.72 84.91 136.47 84.91 136.47 89.41 112.47 89.41 112.47 55.41 116.97 55.41"/>
  <polygon class="st0" points="308.97 55.41 308.97 84.16 309.72 84.91 328.47 84.91 328.47 89.41 304.47 89.41 304.47 55.41 308.97 55.41"/>
  <path class="st0" d="M63.47,84.9c-1.59-5.64-6.46-12.81-1.75-17.99.6,1.41-.74,2.56-.64,4.12.33,5.44,5.05,12.6,2.59,17.83-.68,1.45-2.8,3.31-3.7,4.8,9.22,2.3,8.23-8.54,11.07-13.43.4-.69,6-5.98,6.66-6.36,1.86-1.09,3.8.95,5.76,1.04l-.49-4.5,3.99,1.5c.39-.38-1.5-3.24-1.77-3.98-.17-.47-.66-1.63.26-1.51l5.5,9-4.99-2,.5,4.49c-.41.39-6.24-2.57-7.98-1.76-.37.17-5.96,4.86-6.25,5.28-2.1,3.02-2.52,10.39-5.92,12.83-.68.49-2.11.31-2.6,1.15-.43.74-.06,1.87-.71,2.79-.28.41-5.34,3.04-5.91,3.13-.65.1-6.79-2.72-7.02-3.03-.43-.6-.16-2.54-.74-3.26-.35-.43-2.06-.74-2.84-1.41-3.62-3.12-3.47-9.31-5.59-12.4-.35-.52-4.74-4.07-5.47-4.54-2.59-1.63-5.64,1.22-8.46,1.23l.49-4.5-5.49,1.75,5.49-7.25-1.49,3.99,3.99-1.49c.58.79-.99,4.41.25,4.49,2.09-.87,3.6-2.09,5.73-.71.49.32,6.23,5.66,6.47,6.03,1.16,1.8,1.72,6.73,2.81,9.19,1.86,4.22,3.57,4.94,8.25,4.5-1.29-2-4.19-4.34-4.52-6.72-.76-5.4,3.75-11.95,2.9-17.4-.17-1.09-.89-2.25-1.16-3.34-.12-.5-.66-1.64.27-1.52-.04,1.81,2.67,4.42,2.79,5.73.08.92-1.08,6.16-1.43,7.38-.48,1.66-2.99,5.68-2.14,6.92,4.8,2.84,8.4,1.66,13.28-.03ZM61.94,94.93c-1.86.03-3.78-.96-5.59-.89-2.49.09-8.36,1.7-4.01,4.26,3.28,1.93,6.35.82,9.57-.45l.04-2.91Z"/>
  <path class="st0" d="M75.46,56.91l-.99,4.26-10.01,1.74c-.51-.47,4.47-5.5,5.01-5.74,1.58-.72,4.23-.03,5.99-.26Z"/>
  <path class="st0" d="M48.97,62.9l-10.48-1.51-.52-4.48c1.55.26,4.77-.5,6,.25.84.51,3.77,4.83,5,5.74Z"/>
</svg>